<?xml version="1.0" encoding="utf-8"?>
<!-- Generator: Adobe Illustrator 27.2.0, SVG Export Plug-In . SVG Version: 6.00 Build 0)  -->
<svg version="1.1" id="Layer_1" xmlns="http://www.w3.org/2000/svg" xmlns:xlink="http://www.w3.org/1999/xlink" x="0px" y="0px"
	 viewBox="0 0 576 135" style="enable-background:new 0 0 576 135;" xml:space="preserve">
<style type="text/css">
	.st0{fill:#2B4361;}
	.st1{fill:#FA6400;}
</style>
<g>
	<g>
		<path class="st0" d="M136.2,38.4c0-11.7,8.8-20.7,20.7-20.7c9.3,0,17,5.4,19,14.1c0.2,0.8-0.2,1.3-1,1.3h-5.1c-0.6,0-1-0.3-1.2-1
			c-1.6-4.7-6.1-7.6-11.7-7.6c-8,0-13.6,5.7-13.6,14c0,8.3,5.6,13.9,13.6,13.9c5.5,0,10.1-2.8,11.7-7.6c0.2-0.7,0.6-1,1.2-1h5.1
			c0.7,0,1.1,0.5,0.9,1.4c-2.2,8.4-9.6,14-18.9,14C145,59.1,136.2,50.2,136.2,38.4z M182.7,57V19.8c0-0.7,0.4-1.1,1.1-1.1h4.7
			c0.8,0,1.1,0.3,1.1,1.2l0.2,4.7c1.4-3.9,4.1-6.8,8.9-6.8c1.7,0,2.9,0.3,3.6,0.8c0.5,0.4,0.6,0.7,0.6,1.4v4c0,0.9-0.6,1-1.4,0.8
			c-1-0.2-2-0.4-2.9-0.4c-6.6,0-8.8,5.5-8.8,10.3V57c0,0.7-0.3,1.1-1,1.1h-5.1C183.1,58.1,182.7,57.7,182.7,57z M203.6,38.3
			c0-11.6,8.1-20.5,19.9-20.5c11.7,0,18.6,8.9,18.6,18.7c0,3.2-0.6,4.7-3.3,4.7h-28.1c0.9,7.1,5.9,12.1,14.6,12.1
			c4.3,0,7.6-1.3,10.7-3.4c0.5-0.3,1-0.3,1.3,0.1l1.8,2.5c0.6,0.6,0.3,1.1-0.3,1.7c-3.5,3.4-8.5,5.1-14.1,5.1
			C211.8,59.1,203.6,49.8,203.6,38.3z M235.7,35.7c-0.4-7.1-5.1-11.7-12.1-11.7c-7.1,0-12.1,4.4-12.9,11.7H235.7z M245.5,38.4
			c0-11.8,7.8-20.7,19-20.7c6.5,0,11.6,3,14.5,7.6V1.8c0-0.7,0.4-1.1,1.1-1.1h5.1c0.7,0,1.1,0.4,1.1,1.1v37.1
			c0,11.3-7.6,20.3-20.3,20.3C253.5,59.1,245.5,50.2,245.5,38.4z M266,52.4c7.7,0,13.1-5.6,13.1-13.9c0-8.5-5.4-14.1-13.1-14.1
			c-7.8,0-13.4,5.7-13.4,14C252.6,46.8,258.2,52.4,266,52.4z M292.6,5.1c0-2.4,1.9-4.3,4.3-4.3c2.4,0,4.3,1.9,4.3,4.3
			c0,2.4-1.8,4.3-4.3,4.3C294.6,9.4,292.6,7.5,292.6,5.1z M293.4,19.8c0-0.7,0.3-1.1,1-1.1h5.1c0.7,0,1.1,0.4,1.1,1.1V57
			c0,0.7-0.4,1.1-1.1,1.1h-5.1c-0.7,0-1-0.4-1-1.1V19.8z M311.9,49.3V24.6h-5.1c-0.7,0-1.2-0.5-1.2-1.2v-3.5c0-0.7,0.5-1.1,1.2-1.1
			h5.1V9.4c0-0.7,0.4-1.1,1.1-1.1h5.1c0.7,0,1,0.4,1,1.1v9.3h6.6c0.7,0,1.1,0.4,1.1,1.1v3.5c0,0.7-0.4,1.2-1.1,1.2h-6.6v23.7
			c0,2.9,1.3,4,3.6,4c0.6,0,1.7-0.1,2.5-0.2c1.1-0.1,1.5,0.3,1.5,1.1v3.4c0,1.5-3.3,1.9-5.5,1.9C315.6,58.6,311.9,55.8,311.9,49.3z"
			/>
		<path class="st1" d="M134.8,98.4c0-11.9,7.8-21.3,22.3-21.3s21.8,9.5,21.8,20.7v19.5c0,0.7-0.7,1.3-1.5,1.3h-10
			c-0.7,0-1.3-0.6-1.3-1.3l-0.1-3.3c-2.4,3.6-7.1,5.6-12.3,5.6C142.6,119.7,134.8,110.4,134.8,98.4z M156.8,107.1
			c4.8,0,8.3-3.6,8.3-8.8c0-5-3.5-8.6-8.3-8.6c-4.8,0-8.4,3.5-8.4,8.7C148.4,103.5,152,107.1,156.8,107.1z M183,98.4
			c0-11.9,9-21.3,21.3-21.3c10.1,0,18.1,6,20.4,15.9c0.2,1-0.2,1.5-1.1,1.5h-11.4c-0.7,0-1.2-0.3-1.5-1.1c-1.4-2.7-4.2-3.6-6.5-3.6
			c-4.3,0-7.9,3.1-7.9,8.5c0,5.4,3.6,8.5,7.9,8.5c2.2,0,5-0.8,6.5-3.6c0.2-0.7,0.8-1.1,1.5-1.1h11.4c0.8,0,1.3,0.5,1.1,1.6
			c-2.3,9.9-10.4,15.8-20.4,15.8C192,119.7,183,110.3,183,98.4z M228.9,98.4c0-11.9,9-21.3,21.3-21.3c10.1,0,18.1,6,20.4,15.9
			c0.2,1-0.2,1.5-1.1,1.5h-11.4c-0.7,0-1.2-0.3-1.5-1.1c-1.4-2.7-4.2-3.6-6.5-3.6c-4.3,0-7.9,3.1-7.9,8.5c0,5.4,3.6,8.5,7.9,8.5
			c2.2,0,5-0.8,6.5-3.6c0.2-0.7,0.8-1.1,1.5-1.1h11.4c0.8,0,1.3,0.5,1.1,1.6c-2.3,9.9-10.4,15.8-20.4,15.8
			C237.9,119.7,228.9,110.3,228.9,98.4z M274.4,98.2c0-11.9,8.4-21.1,21-21.1c12.4,0,19.6,9,19.6,19.5c0,4.4-1.1,7.1-5.1,7.1H288
			c1.5,3.7,5,5.1,10.1,5.1c2.3,0,4.9-0.1,8.4-1.9c0.7-0.3,1.1-0.2,1.5,0.5l3.8,5.3c0.3,0.5,0.4,1.2-0.4,1.9c-3.4,3.5-8.6,5-14.4,5
			C283.6,119.7,274.4,110.7,274.4,98.2z M302.7,94.2c-0.8-4.3-3.8-5.7-7.2-5.7c-3.6,0-6.7,1.6-7.8,5.7H302.7z M319.1,133.1V97.8
			c0-11.2,7.3-20.7,21.8-20.7c14.4,0,22.3,9.4,22.3,21.3c0,12-7.8,21.3-18.8,21.3c-4.5,0-8.6-1.5-11.3-4.1v17.5
			c0,0.7-0.6,1.3-1.3,1.3h-11.3C319.6,134.4,319.1,133.8,319.1,133.1z M341.1,107.1c4.7,0,8.4-3.6,8.4-8.7c0-5.2-3.6-8.7-8.4-8.7
			c-4.8,0-8.4,3.6-8.4,8.6C332.7,103.5,336.3,107.1,341.1,107.1z M370.5,106V88.8h-5c-0.7,0-1.2-0.6-1.2-1.3v-8
			c0-0.7,0.5-1.3,1.2-1.3h5v-9.4c0-0.7,0.6-1.3,1.3-1.3h11.4c0.7,0,1.3,0.6,1.3,1.3v9.4h6c0.7,0,1.3,0.6,1.3,1.3v8
			c0,0.7-0.6,1.3-1.3,1.3h-6v15.7c0,2,1.5,3.1,3.5,3.1c0.7,0,1.4,0.1,2.6,0c0.7-0.1,1.4,0.3,1.4,1.2v7.6c0,2.2-4.6,2.7-7.6,2.7
			C377.6,119.2,370.5,116.1,370.5,106z M394,98.4c0-11.9,7.8-21.3,22.3-21.3s21.8,9.5,21.8,20.7v19.5c0,0.7-0.7,1.3-1.5,1.3h-10
			c-0.7,0-1.3-0.6-1.3-1.3l-0.1-3.3c-2.4,3.6-7.1,5.6-12.3,5.6C401.8,119.7,394,110.4,394,98.4z M416.1,107.1c4.8,0,8.3-3.6,8.3-8.8
			c0-5-3.5-8.6-8.3-8.6c-4.8,0-8.4,3.5-8.4,8.7C407.6,103.5,411.3,107.1,416.1,107.1z M443,117.3V79.4c0-0.7,0.6-1.3,1.3-1.3h10.9
			c0.7,0,1.2,0.3,1.2,1.4l0.4,4.6c2.3-4.1,5.9-7,11.6-7c8.4,0,14.7,6.3,14.7,16.8v23.4c0,0.7-0.7,1.3-1.4,1.3h-11.2
			c-0.7,0-1.3-0.6-1.3-1.3v-20c0-5-2.1-7.5-6.1-7.5c-4,0-6.2,2.5-6.2,7.5v20c0,0.7-0.6,1.3-1.3,1.3h-11.3
			C443.5,118.7,443,118.1,443,117.3z M487.4,98.4c0-11.9,9-21.3,21.3-21.3c10.1,0,18.1,6,20.4,15.9c0.2,1-0.2,1.5-1.1,1.5h-11.4
			c-0.7,0-1.2-0.3-1.5-1.1c-1.4-2.7-4.2-3.6-6.5-3.6c-4.3,0-7.9,3.1-7.9,8.5c0,5.4,3.6,8.5,7.9,8.5c2.2,0,5-0.8,6.5-3.6
			c0.2-0.7,0.8-1.1,1.5-1.1h11.4c0.8,0,1.3,0.5,1.1,1.6c-2.3,9.9-10.4,15.8-20.4,15.8C496.4,119.7,487.4,110.3,487.4,98.4z
			 M533,98.2c0-11.9,8.4-21.1,21-21.1c12.4,0,19.6,9,19.6,19.5c0,4.4-1.1,7.1-5.1,7.1h-21.9c1.5,3.7,5,5.1,10.1,5.1
			c2.3,0,4.9-0.1,8.4-1.9c0.7-0.3,1.1-0.2,1.5,0.5l3.8,5.3c0.3,0.5,0.4,1.2-0.4,1.9c-3.4,3.5-8.6,5-14.4,5
			C542.2,119.7,533,110.7,533,98.2z M561.3,94.2c-0.8-4.3-3.8-5.7-7.2-5.7c-3.6,0-6.7,1.6-7.8,5.7H561.3z"/>
	</g>
	<g>
		<path class="st0" d="M102.4,70c-0.9,27.6-23.7,49.6-51.6,49.2C23.9,118.8,1,95.9,0.6,69C0.2,41.2,22.2,18.3,49.8,17.5
			c0.9,0,1.7,0.7,1.7,1.6v15.7c0,0.9-0.7,1.6-1.5,1.6C32.5,37.2,18.8,52,19.6,69.8c0.8,16.4,14,29.6,30.4,30.4
			c17.8,0.8,32.6-12.9,33.4-30.4c0-0.9,0.8-1.5,1.6-1.5h15.7C101.7,68.3,102.4,69.1,102.4,70z"/>
		<path class="st1" d="M98,49.7c0,4.5-3.5,9.4-9.4,9.4c-4.5,0-9.4-3.5-9.4-9.4c0-4.5,3.5-9.4,9.4-9.4C93.1,40.3,98,43.8,98,49.7z"/>
		<path class="st1" d="M80,31.4c0,5.8-4.9,9.4-9.4,9.4c-5.8,0-9.4-4.9-9.4-9.4c0-5.8,4.9-9.4,9.4-9.4C76.5,22,80,26.9,80,31.4z"/>
	</g>
</g>
</svg>
